{
    "asset" : {
        "generator" : "Khronos glTF Blender I/O v1.5.17",
        "version" : "2.0"
    },
    "scene" : 0,
    "scenes" : [
        {
            "name" : "Scene",
            "nodes" : [
                25
            ]
        }
    ],
    "nodes" : [
        {
            "name" : "BoneEyeballLeftController",
            "rotation" : [
                1.7730714674257797e-08,
                7.470422360711382e-07,
                1.3283075811151845e-14,
                1
            ],
            "translation" : [
                0.39724892377853394,
                2.5192038677346318e-08,
                -6.085986115067499e-07
            ]
        },
        {
            "name" : "BoneEyeballRightController",
            "rotation" : [
                1.1871474914215696e-09,
                7.470422360711382e-07,
                8.853594940516629e-16,
                1
            ],
            "translation" : [
                -0.3408229351043701,
                1.4670337122879573e-07,
                7.815587537152169e-07
            ]
        },
        {
            "children" : [
                0,
                1
            ],
            "name" : "BoneEyeballMainController",
            "rotation" : [
                0.7071069478988647,
                -7.513136210945959e-07,
                -5.805210889775481e-07,
                0.7071065902709961
            ],
            "translation" : [
                -4.74584311405124e-07,
                1.4445700645446777,
                1.7405508756637573
            ]
        },
        {
            "children" : [
                2
            ],
            "name" : "BoneRoot",
            "rotation" : [
                0,
                1.1920928955078125e-07,
                0,
                1
            ],
            "translation" : [
                5.960464477539063e-08,
                1.862645149230957e-09,
                0
            ]
        },
        {
            "name" : "BoneFootTail",
            "rotation" : [
                0,
                3.17866124532884e-08,
                0,
                1
            ],
            "translation" : [
                0,
                0.7187352776527405,
                0
            ]
        },
        {
            "children" : [
                4
            ],
            "name" : "BoneFootWaist",
            "rotation" : [
                -7.277348004208761e-07,
                0.7071068286895752,
                -0.7071068286895752,
                7.277348004208761e-07
            ],
            "translation" : [
                0,
                0,
                -0.06907665729522705
            ]
        },
        {
            "name" : "BoneEyeballLeftTarget",
            "rotation" : [
                -0.11146809160709381,
                1.5962273280933914e-08,
                0.061404574662446976,
                0.9918692111968994
            ],
            "scale" : [
                0.9999999403953552,
                0.9999998807907104,
                1
            ],
            "translation" : [
                0.024341318756341934,
                0.5340820550918579,
                -0.013812562450766563
            ]
        },
        {
            "children" : [
                6
            ],
            "name" : "BoneEyestalkLeftTop",
            "rotation" : [
                -2.232391693723912e-08,
                2.572966728564552e-09,
                -1.1408698874504353e-08,
                1
            ],
            "scale" : [
                1,
                1.000000238418579,
                1.000000238418579
            ],
            "translation" : [
                1.4901161193847656e-08,
                0.2840335965156555,
                8.382913563309558e-08
            ]
        },
        {
            "children" : [
                7
            ],
            "name" : "BoneEyestalkLeftMiddle",
            "rotation" : [
                4.8633516769314156e-08,
                7.965391546349565e-08,
                2.910384289123158e-08,
                1
            ],
            "scale" : [
                1.0000001192092896,
                1.0000001192092896,
                1.0000004768371582
            ],
            "translation" : [
                -1.3038532920006674e-08,
                0.2840336561203003,
                7.091345821663708e-08
            ]
        },
        {
            "children" : [
                8
            ],
            "name" : "BoneEyestalkLeftBottom",
            "rotation" : [
                -0.6228269934654236,
                -0.03904862329363823,
                -0.048893965780735016,
                0.7798532843589783
            ],
            "scale" : [
                1.0000001192092896,
                0.9999998211860657,
                1
            ],
            "translation" : [
                0.23543547093868256,
                0.309665322303772,
                -0.37803202867507935
            ]
        },
        {
            "name" : "BoneEyeballRightTarget",
            "rotation" : [
                -0.11165838688611984,
                -3.9684437069809064e-08,
                -0.06631173938512802,
                0.9915317296981812
            ],
            "scale" : [
                0.9999999403953552,
                0.9999998807907104,
                1
            ],
            "translation" : [
                -0.005524643696844578,
                0.5391318798065186,
                -0.015476066619157791
            ]
        },
        {
            "children" : [
                10
            ],
            "name" : "BoneEyestalkRightTop",
            "rotation" : [
                -3.114503854817485e-08,
                -2.5698938088680734e-08,
                -2.759043304934039e-08,
                1
            ],
            "scale" : [
                0.9999997615814209,
                0.9999998807907104,
                0.9999998211860657
            ],
            "translation" : [
                4.097820038850841e-08,
                0.28401896357536316,
                1.421835715831321e-08
            ]
        },
        {
            "children" : [
                11
            ],
            "name" : "BoneEyestalkRightMiddle",
            "rotation" : [
                8.151226893460262e-08,
                2.0851334880944705e-08,
                1.9441358745098114e-08,
                1
            ],
            "scale" : [
                1.000000238418579,
                1.000000238418579,
                1
            ],
            "translation" : [
                1.3038508939189342e-08,
                0.28401878476142883,
                6.355016779480138e-08
            ]
        },
        {
            "children" : [
                12
            ],
            "name" : "BoneEyestalkRightBottom",
            "rotation" : [
                -0.6225026845932007,
                0.04216524586081505,
                0.052810780704021454,
                0.7796945571899414
            ],
            "scale" : [
                1.0000003576278687,
                0.9999998211860657,
                1
            ],
            "translation" : [
                -0.18605142831802368,
                0.3096652626991272,
                -0.3720439374446869
            ]
        },
        {
            "children" : [
                9,
                13
            ],
            "name" : "BoneFootHead",
            "rotation" : [
                0,
                3.17866124532884e-08,
                0,
                1
            ],
            "translation" : [
                0,
                0.7187352776527405,
                0
            ]
        },
        {
            "children" : [
                14
            ],
            "name" : "BoneFootTorso",
            "rotation" : [
                0.7071068286895752,
                -7.277348004208761e-07,
                -7.277348004208761e-07,
                0.7071068286895752
            ],
            "translation" : [
                0,
                0,
                -0.06907665729522705
            ]
        },
        {
            "name" : "BoneShell",
            "translation" : [
                0,
                0.3422391414642334,
                0
            ]
        },
        {
            "name" : "BoneEyeballLeft",
            "rotation" : [
                0.70710688829422,
                -1.361380412845392e-07,
                -1.3931736475569778e-07,
                0.7071066498756409
            ],
            "scale" : [
                1,
                0.9999999403953552,
                0.9999999403953552
            ],
            "translation" : [
                0.3972489833831787,
                1.4445700645446777,
                1.186983346939087
            ]
        },
        {
            "name" : "BoneEyeballRight",
            "rotation" : [
                0.70710688829422,
                -1.3613799865197507e-07,
                -1.393173931774072e-07,
                0.7071066498756409
            ],
            "scale" : [
                1,
                0.9999999403953552,
                0.9999999403953552
            ],
            "translation" : [
                -0.3408229351043701,
                1.444569706916809,
                1.1869832277297974
            ]
        },
        {
            "name" : "BoneEyestalkRightController",
            "rotation" : [
                0,
                -0.007591891102492809,
                0,
                0.9999712705612183
            ],
            "translation" : [
                -0.3009476065635681,
                1.1953614950180054,
                1.1462676525115967
            ]
        },
        {
            "name" : "BoneEyestalkLeftController",
            "rotation" : [
                0,
                0.00701874727383256,
                0,
                0.9999753832817078
            ],
            "translation" : [
                0.3418663740158081,
                1.2025316953659058,
                1.1462676525115967
            ]
        },
        {
            "mesh" : 0,
            "name" : "Body",
            "skin" : 0
        },
        {
            "mesh" : 1,
            "name" : "EyeballLeft",
            "skin" : 0
        },
        {
            "mesh" : 2,
            "name" : "EyeballRight",
            "skin" : 0
        },
        {
            "mesh" : 3,
            "name" : "Shell",
            "skin" : 0
        },
        {
            "children" : [
                21,
                22,
                23,
                24,
                3,
                5,
                15,
                16,
                17,
                18,
                19,
                20
            ],
            "name" : "PlayerRig",
            "rotation" : [
                0,
                -1,
                0,
                7.549790126404332e-08
            ],
            "scale" : [
                0.5399282574653625,
                0.5293877720832825,
                0.5293877720832825
            ]
        }
    ],
    "materials" : [
        {
            "doubleSided" : true,
            "name" : "player_body",
            "pbrMetallicRoughness" : {
                "baseColorTexture" : {
                    "index" : 0
                },
                "metallicFactor" : 0,
                "roughnessFactor" : 0.5
            }
        },
        {
            "doubleSided" : true,
            "name" : "player_eyes.001",
            "pbrMetallicRoughness" : {
                "baseColorTexture" : {
                    "index" : 1
                },
                "metallicFactor" : 0,
                "roughnessFactor" : 0.5
            }
        },
        {
            "doubleSided" : true,
            "name" : "player_shell",
            "pbrMetallicRoughness" : {
                "baseColorTexture" : {
                    "index" : 2
                },
                "metallicFactor" : 0,
                "roughnessFactor" : 0.5
            }
        }
    ],
    "meshes" : [
        {
            "name" : "MeshBody",
            "primitives" : [
                {
                    "attributes" : {
                        "POSITION" : 0,
                        "NORMAL" : 1,
                        "TEXCOORD_0" : 2,
                        "JOINTS_0" : 3,
                        "WEIGHTS_0" : 4
                    },
                    "indices" : 5,
                    "material" : 0
                }
            ]
        },
        {
            "name" : "MeshEyeballLeft",
            "primitives" : [
                {
                    "attributes" : {
                        "POSITION" : 7,
                        "NORMAL" : 8,
                        "TEXCOORD_0" : 9,
                        "JOINTS_0" : 10,
                        "WEIGHTS_0" : 11
                    },
                    "indices" : 12,
                    "material" : 1
                }
            ]
        },
        {
            "name" : "MeshEyeballRight",
            "primitives" : [
                {
                    "attributes" : {
                        "POSITION" : 13,
                        "NORMAL" : 14,
                        "TEXCOORD_0" : 15,
                        "JOINTS_0" : 16,
                        "WEIGHTS_0" : 17
                    },
                    "indices" : 12,
                    "material" : 1
                }
            ]
        },
        {
            "name" : "MeshShell",
            "primitives" : [
                {
                    "attributes" : {
                        "POSITION" : 18,
                        "NORMAL" : 19,
                        "TEXCOORD_0" : 20,
                        "JOINTS_0" : 21,
                        "WEIGHTS_0" : 22
                    },
                    "indices" : 23,
                    "material" : 2
                }
            ]
        }
    ],
    "textures" : [
        {
            "sampler" : 0,
            "source" : 0
        },
        {
            "sampler" : 0,
            "source" : 1
        },
        {
            "sampler" : 0,
            "source" : 2
        }
    ],
    "images" : [
        {
            "bufferView" : 6,
            "mimeType" : "image/png",
            "name" : "body"
        },
        {
            "bufferView" : 14,
            "mimeType" : "image/png",
            "name" : "eyes"
        },
        {
            "bufferView" : 26,
            "mimeType" : "image/png",
            "name" : "shell"
        }
    ],
    "skins" : [
        {
            "inverseBindMatrices" : 6,
            "joints" : [
                3,
                2,
                0,
                1,
                5,
                4,
                15,
                14,
                9,
                8,
                7,
                6,
                13,
                12,
                11,
                10,
                16,
                17,
                18,
                19,
                20
            ],
            "name" : "PlayerRig"
        }
    ],
    "accessors" : [
        {
            "bufferView" : 0,
            "componentType" : 5126,
            "count" : 518,
            "max" : [
                0.2349286675453186,
                0.6613531112670898,
                0.8340057134628296
            ],
            "min" : [
                -0.25454452633857727,
                -0.00371134583838284,
                -0.7343209385871887
            ],
            "type" : "VEC3"
        },
        {
            "bufferView" : 1,
            "componentType" : 5126,
            "count" : 518,
            "type" : "VEC3"
        },
        {
            "bufferView" : 2,
            "componentType" : 5126,
            "count" : 518,
            "type" : "VEC2"
        },
        {
            "bufferView" : 3,
            "componentType" : 5121,
            "count" : 518,
            "type" : "VEC4"
        },
        {
            "bufferView" : 4,
            "componentType" : 5126,
            "count" : 518,
            "type" : "VEC4"
        },
        {
            "bufferView" : 5,
            "componentType" : 5123,
            "count" : 2244,
            "type" : "SCALAR"
        },
        {
            "bufferView" : 7,
            "componentType" : 5126,
            "count" : 21,
            "type" : "MAT4"
        },
        {
            "bufferView" : 8,
            "componentType" : 5126,
            "count" : 130,
            "max" : [
                -0.05733874440193176,
                0.9218848347663879,
                -0.4712270200252533
            ],
            "min" : [
                -0.3716333210468292,
                0.6075903177261353,
                -0.7855216264724731
            ],
            "type" : "VEC3"
        },
        {
            "bufferView" : 9,
            "componentType" : 5126,
            "count" : 130,
            "type" : "VEC3"
        },
        {
            "bufferView" : 10,
            "componentType" : 5126,
            "count" : 130,
            "type" : "VEC2"
        },
        {
            "bufferView" : 11,
            "componentType" : 5121,
            "count" : 130,
            "type" : "VEC4"
        },
        {
            "bufferView" : 12,
            "componentType" : 5126,
            "count" : 130,
            "type" : "VEC4"
        },
        {
            "bufferView" : 13,
            "componentType" : 5123,
            "count" : 672,
            "type" : "SCALAR"
        },
        {
            "bufferView" : 15,
            "componentType" : 5126,
            "count" : 130,
            "max" : [
                0.3411671221256256,
                0.9218848347663879,
                -0.47122707962989807
            ],
            "min" : [
                0.026872530579566956,
                0.6075903177261353,
                -0.7855216860771179
            ],
            "type" : "VEC3"
        },
        {
            "bufferView" : 16,
            "componentType" : 5126,
            "count" : 130,
            "type" : "VEC3"
        },
        {
            "bufferView" : 17,
            "componentType" : 5126,
            "count" : 130,
            "type" : "VEC2"
        },
        {
            "bufferView" : 18,
            "componentType" : 5121,
            "count" : 130,
            "type" : "VEC4"
        },
        {
            "bufferView" : 19,
            "componentType" : 5126,
            "count" : 130,
            "type" : "VEC4"
        },
        {
            "bufferView" : 20,
            "componentType" : 5126,
            "count" : 429,
            "max" : [
                0.4090055525302887,
                0.933566153049469,
                0.6626408100128174
            ],
            "min" : [
                -0.3437741696834564,
                0.013533798046410084,
                -0.4194726049900055
            ],
            "type" : "VEC3"
        },
        {
            "bufferView" : 21,
            "componentType" : 5126,
            "count" : 429,
            "type" : "VEC3"
        },
        {
            "bufferView" : 22,
            "componentType" : 5126,
            "count" : 429,
            "type" : "VEC2"
        },
        {
            "bufferView" : 23,
            "componentType" : 5121,
            "count" : 429,
            "type" : "VEC4"
        },
        {
            "bufferView" : 24,
            "componentType" : 5126,
            "count" : 429,
            "type" : "VEC4"
        },
        {
            "bufferView" : 25,
            "componentType" : 5123,
            "count" : 2196,
            "type" : "SCALAR"
        }
    ],
    "bufferViews" : [
        {
            "buffer" : 0,
            "byteLength" : 6216,
            "byteOffset" : 0
        },
        {
            "buffer" : 0,
            "byteLength" : 6216,
            "byteOffset" : 6216
        },
        {
            "buffer" : 0,
            "byteLength" : 4144,
            "byteOffset" : 12432
        },
        {
            "buffer" : 0,
            "byteLength" : 2072,
            "byteOffset" : 16576
        },
        {
            "buffer" : 0,
            "byteLength" : 8288,
            "byteOffset" : 18648
        },
        {
            "buffer" : 0,
            "byteLength" : 4488,
            "byteOffset" : 26936
        },
        {
            "buffer" : 0,
            "byteLength" : 25275,
            "byteOffset" : 31424
        },
        {
            "buffer" : 0,
            "byteLength" : 1344,
            "byteOffset" : 56700
        },
        {
            "buffer" : 0,
            "byteLength" : 1560,
            "byteOffset" : 58044
        },
        {
            "buffer" : 0,
            "byteLength" : 1560,
            "byteOffset" : 59604
        },
        {
            "buffer" : 0,
            "byteLength" : 1040,
            "byteOffset" : 61164
        },
        {
            "buffer" : 0,
            "byteLength" : 520,
            "byteOffset" : 62204
        },
        {
            "buffer" : 0,
            "byteLength" : 2080,
            "byteOffset" : 62724
        },
        {
            "buffer" : 0,
            "byteLength" : 1344,
            "byteOffset" : 64804
        },
        {
            "buffer" : 0,
            "byteLength" : 4687,
            "byteOffset" : 66148
        },
        {
            "buffer" : 0,
            "byteLength" : 1560,
            "byteOffset" : 70836
        },
        {
            "buffer" : 0,
            "byteLength" : 1560,
            "byteOffset" : 72396
        },
        {
            "buffer" : 0,
            "byteLength" : 1040,
            "byteOffset" : 73956
        },
        {
            "buffer" : 0,
            "byteLength" : 520,
            "byteOffset" : 74996
        },
        {
            "buffer" : 0,
            "byteLength" : 2080,
            "byteOffset" : 75516
        },
        {
            "buffer" : 0,
            "byteLength" : 5148,
            "byteOffset" : 77596
        },
        {
            "buffer" : 0,
            "byteLength" : 5148,
            "byteOffset" : 82744
        },
        {
            "buffer" : 0,
            "byteLength" : 3432,
            "byteOffset" : 87892
        },
        {
            "buffer" : 0,
            "byteLength" : 1716,
            "byteOffset" : 91324
        },
        {
            "buffer" : 0,
            "byteLength" : 6864,
            "byteOffset" : 93040
        },
        {
            "buffer" : 0,
            "byteLength" : 4392,
            "byteOffset" : 99904
        },
        {
            "buffer" : 0,
            "byteLength" : 16490,
            "byteOffset" : 104296
        }
    ],
    "samplers" : [
        {
            "magFilter" : 9729,
            "minFilter" : 9987
        }
    ],
    "buffers" : [
        {
            "byteLength" : 120788,
            "uri" : "data:application/octet-stream;base64,"
        }
    ]
}
