{
    "asset" : {
        "generator" : "Khronos glTF Blender I/O v3.4.50",
        "version" : "2.0"
    },
    "extensionsUsed" : [
        "KHR_texture_transform"
    ],
    "extensionsRequired" : [
        "KHR_texture_transform"
    ],
    "scene" : 0,
    "scenes" : [
        {
            "name" : "Scene",
            "nodes" : [
                0,
                1
            ]
        }
    ],
    "nodes" : [
        {
            "mesh" : 0,
            "name" : "Slide",
            "translation" : [
                -84.693115234375,
                1.0518779754638672,
                -15.518997192382812
            ]
        },
        {
            "mesh" : 1,
            "name" : "Slide-col",
            "translation" : [
                -84.693115234375,
                1.0518779754638672,
                -15.518997192382812
            ]
        }
    ],
    "materials" : [
        {
            "doubleSided" : true,
            "name" : "Material.003",
            "pbrMetallicRoughness" : {
                "baseColorTexture" : {
                    "extensions" : {
                        "KHR_texture_transform" : {
                            "offset" : [
                                0,
                                -31
                            ],
                            "scale" : [
                                32,
                                32
                            ]
                        }
                    },
                    "index" : 0
                },
                "metallicFactor" : 0,
                "roughnessFactor" : 0.5
            }
        },
        {
            "doubleSided" : true,
            "name" : "Material.004",
            "pbrMetallicRoughness" : {
                "baseColorTexture" : {
                    "extensions" : {
                        "KHR_texture_transform" : {
                            "offset" : [
                                0,
                                -31
                            ],
                            "scale" : [
                                32,
                                32
                            ]
                        }
                    },
                    "index" : 1
                },
                "metallicFactor" : 0,
                "roughnessFactor" : 0.5
            }
        }
    ],
    "meshes" : [
        {
            "name" : "Plane.001",
            "primitives" : [
                {
                    "attributes" : {
                        "POSITION" : 0,
                        "TEXCOORD_0" : 1,
                        "NORMAL" : 2
                    },
                    "indices" : 3,
                    "material" : 0
                }
            ]
        },
        {
            "name" : "Plane.002",
            "primitives" : [
                {
                    "attributes" : {
                        "POSITION" : 4,
                        "TEXCOORD_0" : 5,
                        "NORMAL" : 6
                    },
                    "indices" : 3,
                    "material" : 1
                }
            ]
        }
    ],
    "textures" : [
        {
            "sampler" : 0,
            "source" : 0
        },
        {
            "sampler" : 0,
            "source" : 0
        }
    ],
    "images" : [
        {
            "bufferView" : 4,
            "mimeType" : "image/png",
            "name" : "test_block_gold"
        }
    ],
    "accessors" : [
        {
            "bufferView" : 0,
            "componentType" : 5126,
            "count" : 3442,
            "max" : [
                151.9138946533203,
                60.42849349975586,
                145.27069091796875
            ],
            "min" : [
                -9.685287475585938,
                -54.52853012084961,
                -92.22274780273438
            ],
            "type" : "VEC3"
        },
        {
            "bufferView" : 1,
            "componentType" : 5126,
            "count" : 3442,
            "type" : "VEC2"
        },
        {
            "bufferView" : 2,
            "componentType" : 5126,
            "count" : 3442,
            "type" : "VEC3"
        },
        {
            "bufferView" : 3,
            "componentType" : 5123,
            "count" : 18216,
            "type" : "SCALAR"
        },
        {
            "bufferView" : 5,
            "componentType" : 5126,
            "count" : 3442,
            "max" : [
                151.9138946533203,
                60.42849349975586,
                145.27069091796875
            ],
            "min" : [
                -9.685287475585938,
                -54.52853012084961,
                -92.22274780273438
            ],
            "type" : "VEC3"
        },
        {
            "bufferView" : 6,
            "componentType" : 5126,
            "count" : 3442,
            "type" : "VEC2"
        },
        {
            "bufferView" : 7,
            "componentType" : 5126,
            "count" : 3442,
            "type" : "VEC3"
        }
    ],
    "bufferViews" : [
        {
            "buffer" : 0,
            "byteLength" : 41304,
            "byteOffset" : 0,
            "target" : 34962
        },
        {
            "buffer" : 0,
            "byteLength" : 27536,
            "byteOffset" : 41304,
            "target" : 34962
        },
        {
            "buffer" : 0,
            "byteLength" : 41304,
            "byteOffset" : 68840,
            "target" : 34962
        },
        {
            "buffer" : 0,
            "byteLength" : 36432,
            "byteOffset" : 110144,
            "target" : 34963
        },
        {
            "buffer" : 0,
            "byteLength" : 3841,
            "byteOffset" : 146576
        },
        {
            "buffer" : 0,
            "byteLength" : 41304,
            "byteOffset" : 150420,
            "target" : 34962
        },
        {
            "buffer" : 0,
            "byteLength" : 27536,
            "byteOffset" : 191724,
            "target" : 34962
        },
        {
            "buffer" : 0,
            "byteLength" : 41304,
            "byteOffset" : 219260,
            "target" : 34962
        }
    ],
    "samplers" : [
        {
            "magFilter" : 9729,
            "minFilter" : 9987
        }
    ],
    "buffers" : [
        {
            "byteLength" : 260564,
            "uri" : "data:application/octet-stream;base64,"
        }
    ]
}
