{
    "asset" : {
        "generator" : "Khronos glTF Blender I/O v1.5.17",
        "version" : "2.0"
    },
    "scene" : 0,
    "scenes" : [
        {
            "name" : "Scene",
            "nodes" : [
                1
            ]
        }
    ],
    "nodes" : [
        {
            "mesh" : 0,
            "name" : "TestMap-colonly"
        },
        {
            "children" : [
                0
            ],
            "mesh" : 1,
            "name" : "TestMap",
            "scale" : [
                4.699999809265137,
                4.699999809265137,
                4.699999809265137
            ]
        }
    ],
    "materials" : [
        {
            "doubleSided" : true,
            "name" : "Material.004",
            "pbrMetallicRoughness" : {
                "metallicFactor" : 0,
                "roughnessFactor" : 0.5
            }
        },
        {
            "doubleSided" : true,
            "name" : "Material.001",
            "pbrMetallicRoughness" : {
                "metallicFactor" : 0,
                "roughnessFactor" : 0.5
            }
        }
    ],
    "meshes" : [
        {
            "name" : "TestMap-colonly",
            "primitives" : [
                {
                    "attributes" : {
                        "POSITION" : 0,
                        "NORMAL" : 1,
                        "TEXCOORD_0" : 2
                    },
                    "indices" : 3,
                    "material" : 0
                }
            ]
        },
        {
            "name" : "TestMap",
            "primitives" : [
                {
                    "attributes" : {
                        "POSITION" : 4,
                        "NORMAL" : 5,
                        "TEXCOORD_0" : 6
                    },
                    "indices" : 3,
                    "material" : 1
                }
            ]
        }
    ],
    "accessors" : [
        {
            "bufferView" : 0,
            "componentType" : 5126,
            "count" : 1799,
            "max" : [
                33.9681396484375,
                5.245075225830078,
                24.59263038635254
            ],
            "min" : [
                -36.77589797973633,
                -2.4324862957000732,
                -26.16042709350586
            ],
            "type" : "VEC3"
        },
        {
            "bufferView" : 1,
            "componentType" : 5126,
            "count" : 1799,
            "type" : "VEC3"
        },
        {
            "bufferView" : 2,
            "componentType" : 5126,
            "count" : 1799,
            "type" : "VEC2"
        },
        {
            "bufferView" : 3,
            "componentType" : 5123,
            "count" : 6540,
            "type" : "SCALAR"
        },
        {
            "bufferView" : 4,
            "componentType" : 5126,
            "count" : 1799,
            "max" : [
                33.9681396484375,
                5.245075225830078,
                24.59263038635254
            ],
            "min" : [
                -36.77589797973633,
                -2.4324862957000732,
                -26.16042709350586
            ],
            "type" : "VEC3"
        },
        {
            "bufferView" : 5,
            "componentType" : 5126,
            "count" : 1799,
            "type" : "VEC3"
        },
        {
            "bufferView" : 6,
            "componentType" : 5126,
            "count" : 1799,
            "type" : "VEC2"
        }
    ],
    "bufferViews" : [
        {
            "buffer" : 0,
            "byteLength" : 21588,
            "byteOffset" : 0
        },
        {
            "buffer" : 0,
            "byteLength" : 21588,
            "byteOffset" : 21588
        },
        {
            "buffer" : 0,
            "byteLength" : 14392,
            "byteOffset" : 43176
        },
        {
            "buffer" : 0,
            "byteLength" : 13080,
            "byteOffset" : 57568
        },
        {
            "buffer" : 0,
            "byteLength" : 21588,
            "byteOffset" : 70648
        },
        {
            "buffer" : 0,
            "byteLength" : 21588,
            "byteOffset" : 92236
        },
        {
            "buffer" : 0,
            "byteLength" : 14392,
            "byteOffset" : 113824
        }
    ],
    "buffers" : [
        {
            "byteLength" : 128216,
            "uri" : "data:application/octet-stream;base64,"
        }
    ]
}
