{
    "asset" : {
        "generator" : "Khronos glTF Blender I/O v3.4.50",
        "version" : "2.0"
    },
    "extensionsUsed" : [
        "KHR_texture_transform"
    ],
    "extensionsRequired" : [
        "KHR_texture_transform"
    ],
    "scene" : 0,
    "scenes" : [
        {
            "name" : "Scene",
            "nodes" : [
                0,
                1
            ]
        }
    ],
    "nodes" : [
        {
            "mesh" : 0,
            "name" : "Plane"
        },
        {
            "mesh" : 1,
            "name" : "Plane-col"
        }
    ],
    "materials" : [
        {
            "doubleSided" : true,
            "name" : "Material.001",
            "pbrMetallicRoughness" : {
                "baseColorTexture" : {
                    "extensions" : {
                        "KHR_texture_transform" : {
                            "offset" : [
                                0,
                                -31
                            ],
                            "scale" : [
                                32,
                                32
                            ]
                        }
                    },
                    "index" : 0
                },
                "metallicFactor" : 0,
                "roughnessFactor" : 0.5
            }
        },
        {
            "doubleSided" : true,
            "name" : "Material.002",
            "pbrMetallicRoughness" : {
                "baseColorTexture" : {
                    "extensions" : {
                        "KHR_texture_transform" : {
                            "offset" : [
                                0,
                                -15
                            ],
                            "scale" : [
                                16,
                                16
                            ]
                        }
                    },
                    "index" : 1
                },
                "metallicFactor" : 0,
                "roughnessFactor" : 0.5
            }
        },
        {
            "doubleSided" : true,
            "name" : "Material.005",
            "pbrMetallicRoughness" : {
                "baseColorTexture" : {
                    "extensions" : {
                        "KHR_texture_transform" : {
                            "offset" : [
                                0,
                                -31
                            ],
                            "scale" : [
                                32,
                                32
                            ]
                        }
                    },
                    "index" : 2
                },
                "metallicFactor" : 0,
                "roughnessFactor" : 0.5
            }
        },
        {
            "doubleSided" : true,
            "name" : "Material.004",
            "pbrMetallicRoughness" : {
                "baseColorTexture" : {
                    "extensions" : {
                        "KHR_texture_transform" : {
                            "offset" : [
                                0,
                                -15
                            ],
                            "scale" : [
                                16,
                                16
                            ]
                        }
                    },
                    "index" : 3
                },
                "metallicFactor" : 0,
                "roughnessFactor" : 0.5
            }
        }
    ],
    "meshes" : [
        {
            "name" : "Plane",
            "primitives" : [
                {
                    "attributes" : {
                        "POSITION" : 0,
                        "TEXCOORD_0" : 1,
                        "NORMAL" : 2
                    },
                    "indices" : 3,
                    "material" : 0
                },
                {
                    "attributes" : {
                        "POSITION" : 4,
                        "TEXCOORD_0" : 5,
                        "NORMAL" : 6
                    },
                    "indices" : 7,
                    "material" : 1
                }
            ]
        },
        {
            "name" : "Plane-col",
            "primitives" : [
                {
                    "attributes" : {
                        "POSITION" : 8,
                        "TEXCOORD_0" : 9,
                        "NORMAL" : 10
                    },
                    "indices" : 3,
                    "material" : 2
                },
                {
                    "attributes" : {
                        "POSITION" : 11,
                        "TEXCOORD_0" : 12,
                        "NORMAL" : 13
                    },
                    "indices" : 7,
                    "material" : 3
                }
            ]
        }
    ],
    "textures" : [
        {
            "sampler" : 0,
            "source" : 0
        },
        {
            "sampler" : 0,
            "source" : 1
        },
        {
            "sampler" : 0,
            "source" : 0
        },
        {
            "sampler" : 0,
            "source" : 1
        }
    ],
    "images" : [
        {
            "bufferView" : 4,
            "mimeType" : "image/png",
            "name" : "test_block_blank"
        },
        {
            "bufferView" : 9,
            "mimeType" : "image/png",
            "name" : "test_block_gray"
        }
    ],
    "accessors" : [
        {
            "bufferView" : 0,
            "componentType" : 5126,
            "count" : 416,
            "max" : [
                64,
                58,
                64
            ],
            "min" : [
                -64,
                -20,
                -64
            ],
            "type" : "VEC3"
        },
        {
            "bufferView" : 1,
            "componentType" : 5126,
            "count" : 416,
            "type" : "VEC2"
        },
        {
            "bufferView" : 2,
            "componentType" : 5126,
            "count" : 416,
            "type" : "VEC3"
        },
        {
            "bufferView" : 3,
            "componentType" : 5123,
            "count" : 888,
            "type" : "SCALAR"
        },
        {
            "bufferView" : 5,
            "componentType" : 5126,
            "count" : 78,
            "max" : [
                58,
                58,
                58
            ],
            "min" : [
                -56,
                0,
                -56
            ],
            "type" : "VEC3"
        },
        {
            "bufferView" : 6,
            "componentType" : 5126,
            "count" : 78,
            "type" : "VEC2"
        },
        {
            "bufferView" : 7,
            "componentType" : 5126,
            "count" : 78,
            "type" : "VEC3"
        },
        {
            "bufferView" : 8,
            "componentType" : 5123,
            "count" : 138,
            "type" : "SCALAR"
        },
        {
            "bufferView" : 10,
            "componentType" : 5126,
            "count" : 416,
            "max" : [
                64,
                58,
                64
            ],
            "min" : [
                -64,
                -20,
                -64
            ],
            "type" : "VEC3"
        },
        {
            "bufferView" : 11,
            "componentType" : 5126,
            "count" : 416,
            "type" : "VEC2"
        },
        {
            "bufferView" : 12,
            "componentType" : 5126,
            "count" : 416,
            "type" : "VEC3"
        },
        {
            "bufferView" : 13,
            "componentType" : 5126,
            "count" : 78,
            "max" : [
                58,
                58,
                58
            ],
            "min" : [
                -56,
                0,
                -56
            ],
            "type" : "VEC3"
        },
        {
            "bufferView" : 14,
            "componentType" : 5126,
            "count" : 78,
            "type" : "VEC2"
        },
        {
            "bufferView" : 15,
            "componentType" : 5126,
            "count" : 78,
            "type" : "VEC3"
        }
    ],
    "bufferViews" : [
        {
            "buffer" : 0,
            "byteLength" : 4992,
            "byteOffset" : 0,
            "target" : 34962
        },
        {
            "buffer" : 0,
            "byteLength" : 3328,
            "byteOffset" : 4992,
            "target" : 34962
        },
        {
            "buffer" : 0,
            "byteLength" : 4992,
            "byteOffset" : 8320,
            "target" : 34962
        },
        {
            "buffer" : 0,
            "byteLength" : 1776,
            "byteOffset" : 13312,
            "target" : 34963
        },
        {
            "buffer" : 0,
            "byteLength" : 288,
            "byteOffset" : 15088
        },
        {
            "buffer" : 0,
            "byteLength" : 936,
            "byteOffset" : 15376,
            "target" : 34962
        },
        {
            "buffer" : 0,
            "byteLength" : 624,
            "byteOffset" : 16312,
            "target" : 34962
        },
        {
            "buffer" : 0,
            "byteLength" : 936,
            "byteOffset" : 16936,
            "target" : 34962
        },
        {
            "buffer" : 0,
            "byteLength" : 276,
            "byteOffset" : 17872,
            "target" : 34963
        },
        {
            "buffer" : 0,
            "byteLength" : 161,
            "byteOffset" : 18148
        },
        {
            "buffer" : 0,
            "byteLength" : 4992,
            "byteOffset" : 18312,
            "target" : 34962
        },
        {
            "buffer" : 0,
            "byteLength" : 3328,
            "byteOffset" : 23304,
            "target" : 34962
        },
        {
            "buffer" : 0,
            "byteLength" : 4992,
            "byteOffset" : 26632,
            "target" : 34962
        },
        {
            "buffer" : 0,
            "byteLength" : 936,
            "byteOffset" : 31624,
            "target" : 34962
        },
        {
            "buffer" : 0,
            "byteLength" : 624,
            "byteOffset" : 32560,
            "target" : 34962
        },
        {
            "buffer" : 0,
            "byteLength" : 936,
            "byteOffset" : 33184,
            "target" : 34962
        }
    ],
    "samplers" : [
        {
            "magFilter" : 9729,
            "minFilter" : 9987
        }
    ],
    "buffers" : [
        {
            "byteLength" : 34120,
            "uri" : "data:application/octet-stream;base64,"
        }
    ]
}
